<svg width="15" height="14" viewBox="0 0 15 14" fill="none" xmlns="http://www.w3.org/2000/svg">
<path d="M1.5 13.5C1.0875 13.5 0.734375 13.3531 0.440625 13.0594C0.146875 12.7656 0 12.4125 0 12V0L1.25625 1.25625L2.49375 0L3.75 1.25625L5.00625 0L6.24375 1.25625L7.5 0L8.75625 1.25625L9.99375 0L11.25 1.25625L12.5063 0L13.7437 1.25625L15 0V12C15 12.4125 14.8531 12.7656 14.5594 13.0594C14.2656 13.3531 13.9125 13.5 13.5 13.5H1.5ZM1.5 12H6.75V7.5H1.5V12ZM8.25 12H13.5V10.5H8.25V12ZM8.25 9H13.5V7.5H8.25V9ZM1.5 6H13.5V3.75H1.5V6Z" fill="#111814"/>
</svg>
